<svg width="69" height="69" viewBox="0 0 69 69" fill="none" xmlns="http://www.w3.org/2000/svg">
<path d="M40.3937 5.75003C46.2537 6.3675 51.7275 8.96658 55.9097 13.1175C60.092 17.2683 62.7322 22.7223 63.3937 28.5775M40.3937 17.25C43.2213 17.8076 45.816 19.2022 47.8411 21.2529C49.8661 23.3036 51.228 25.9157 51.75 28.75M63.25 48.645V57.27C63.2532 58.0707 63.0892 58.8633 62.7685 59.5969C62.4477 60.3305 61.9772 60.9891 61.3872 61.5304C60.7972 62.0717 60.1006 62.4838 59.3421 62.7403C58.5836 62.9968 57.7799 63.0921 56.9825 63.02C48.1356 62.0588 39.6376 59.0357 32.1712 54.1938C25.2247 49.7797 19.3353 43.8903 14.9212 36.9438C10.0624 29.4435 7.03869 20.9041 6.09499 12.0175C6.02315 11.2225 6.11763 10.4212 6.37243 9.6647C6.62723 8.90819 7.03676 8.21302 7.57494 7.62345C8.11313 7.03387 8.76818 6.56282 9.49839 6.24029C10.2286 5.91775 11.018 5.75079 11.8162 5.75003H20.4412C21.8365 5.7363 23.1891 6.23039 24.2471 7.14019C25.305 8.05 25.996 9.31344 26.1912 10.695C26.5553 13.4552 27.2304 16.1654 28.2037 18.7738C28.5906 19.8028 28.6743 20.9212 28.445 21.9963C28.2157 23.0715 27.683 24.0584 26.91 24.84L23.2587 28.4913C27.3515 35.689 33.311 41.6486 40.5087 45.7413L44.16 42.09C44.9417 41.3171 45.9286 40.7844 47.0037 40.5551C48.0789 40.3258 49.1972 40.4095 50.2262 40.7963C52.8346 41.7696 55.5448 42.4447 58.305 42.8088C59.7016 43.0058 60.977 43.7093 61.8888 44.7853C62.8005 45.8614 63.285 47.2351 63.25 48.645Z" stroke="black" stroke-width="2" stroke-linecap="round" stroke-linejoin="round"/>
</svg>
