<svg width="69" height="69" viewBox="0 0 69 69" fill="none" xmlns="http://www.w3.org/2000/svg">
<path d="M33.0625 40.25C44.965 40.25 54.625 44.7638 54.625 50.3125V57.5H11.5V50.3125C11.5 44.7638 21.16 40.25 33.0625 40.25ZM51.75 50.3125C51.75 46.345 43.3837 43.125 33.0625 43.125C22.7413 43.125 14.375 46.345 14.375 50.3125V54.625H51.75V50.3125ZM33.0625 14.375C35.7312 14.375 38.2907 15.4352 40.1778 17.3222C42.0648 19.2093 43.125 21.7688 43.125 24.4375C43.125 27.1062 42.0648 29.6657 40.1778 31.5528C38.2907 33.4398 35.7312 34.5 33.0625 34.5C30.3938 34.5 27.8343 33.4398 25.9472 31.5528C24.0602 29.6657 23 27.1062 23 24.4375C23 21.7688 24.0602 19.2093 25.9472 17.3222C27.8343 15.4352 30.3938 14.375 33.0625 14.375ZM33.0625 17.25C31.1563 17.25 29.3281 18.0073 27.9802 19.3552C26.6323 20.7031 25.875 22.5313 25.875 24.4375C25.875 26.3437 26.6323 28.1719 27.9802 29.5198C29.3281 30.8677 31.1563 31.625 33.0625 31.625C34.9687 31.625 36.7969 30.8677 38.1448 29.5198C39.4927 28.1719 40.25 26.3437 40.25 24.4375C40.25 22.5313 39.4927 20.7031 38.1448 19.3552C36.7969 18.0073 34.9687 17.25 33.0625 17.25Z" fill="black"/>
</svg>
