<svg width="69" height="69" viewBox="0 0 69 69" fill="none" xmlns="http://www.w3.org/2000/svg">
<path d="M14.375 14.375H51.75C54.0375 14.375 56.2313 15.2837 57.8488 16.9012C59.4663 18.5187 60.375 20.7125 60.375 23V48.875C60.375 51.1625 59.4663 53.3563 57.8488 54.9738C56.2313 56.5913 54.0375 57.5 51.75 57.5H14.375C12.0875 57.5 9.89371 56.5913 8.2762 54.9738C6.6587 53.3563 5.75 51.1625 5.75 48.875V23C5.75 20.7125 6.6587 18.5187 8.2762 16.9012C9.89371 15.2837 12.0875 14.375 14.375 14.375ZM14.375 17.25C12.9375 17.25 11.6725 17.7387 10.695 18.6012L33.0625 33.0625L55.43 18.6012C54.4525 17.7387 53.1875 17.25 51.75 17.25H14.375ZM33.0625 36.5413L8.99875 20.93C8.76875 21.5625 8.625 22.2812 8.625 23V48.875C8.625 50.4 9.2308 51.8625 10.3091 52.9409C11.3875 54.0192 12.85 54.625 14.375 54.625H51.75C53.275 54.625 54.7375 54.0192 55.8159 52.9409C56.8942 51.8625 57.5 50.4 57.5 48.875V23C57.5 22.2812 57.3563 21.5625 57.1263 20.93L33.0625 36.5413Z" fill="black"/>
</svg>
