<svg width="110" height="105" viewBox="0 0 110 105" fill="none" xmlns="http://www.w3.org/2000/svg">
<path d="M103.125 41.2945C103.128 40.4324 102.951 39.5783 102.605 38.782C102.259 37.9856 101.751 37.2628 101.11 36.6557L71.5988 8.48203C70.9604 7.87249 70.2024 7.38896 69.3682 7.05907C68.534 6.72918 67.6399 6.55939 66.7369 6.55939C65.8339 6.55939 64.9398 6.72918 64.1056 7.05907C63.2714 7.38896 62.5134 7.87249 61.875 8.48203L49.659 20.1428L24.7371 29.0719C23.6045 29.4751 22.6027 30.1552 21.832 31.0442C21.0613 31.9332 20.5488 32.9998 20.3457 34.1373L10.3598 91.3336C10.2774 91.8038 10.3033 92.2854 10.4357 92.7451C10.5681 93.2047 10.8039 93.6313 11.1265 93.9951C11.4492 94.3589 11.8511 94.6513 12.3041 94.8518C12.7572 95.0523 13.2506 95.1562 13.75 95.1562C13.94 95.1555 14.1297 95.1404 14.3172 95.1111L74.2328 85.5791C75.423 85.3895 76.54 84.9042 77.4715 84.172C78.403 83.4398 79.1162 82.4865 79.5395 81.4078L88.8938 57.6187L101.11 45.9375C101.751 45.3297 102.26 44.6062 102.606 43.8092C102.952 43.0121 103.128 42.1573 103.125 41.2945ZM73.1027 79.1068L23.7703 86.9531L44.1246 67.524C46.6669 68.8355 49.6187 69.2298 52.4404 68.6347C55.2621 68.0396 57.7652 66.495 59.492 64.2832C61.2188 62.0714 62.0539 59.3403 61.8446 56.5891C61.6353 53.8379 60.3957 51.2506 58.3523 49.3001C56.3089 47.3496 53.5984 46.1663 50.7162 45.9665C47.834 45.7668 44.9728 46.5639 42.6557 48.2122C40.3386 49.8605 38.7204 52.2498 38.097 54.9432C37.4736 57.6367 37.8866 60.4544 39.2605 62.8811L18.9063 82.3184L27.1262 35.216L50.7031 26.7791L81.9414 56.6016L73.1027 79.1068ZM44.6875 57.4219C44.6875 56.4484 44.9899 55.4968 45.5565 54.6874C46.1231 53.878 46.9284 53.2472 47.8705 52.8747C48.8127 52.5021 49.8495 52.4047 50.8497 52.5946C51.8499 52.7845 52.7687 53.2532 53.4898 53.9416C54.2109 54.6299 54.702 55.5069 54.9009 56.4617C55.0999 57.4164 54.9978 58.406 54.6075 59.3054C54.2172 60.2047 53.5564 60.9734 52.7084 61.5143C51.8605 62.0551 50.8636 62.3437 49.8438 62.3437C48.4762 62.3437 47.1647 61.8252 46.1977 60.9022C45.2307 59.9791 44.6875 58.7272 44.6875 57.4219ZM85.9375 51.1383L56.4223 22.9687L66.7348 13.125L96.25 41.2945L85.9375 51.1383Z" fill="black"/>
</svg>
