<svg width="110" height="105" viewBox="0 0 110 105" fill="none" xmlns="http://www.w3.org/2000/svg">
<path d="M22.9167 35V87.5H41.25V35H22.9167ZM13.75 30.625L32.0833 8.75L50.4167 30.625V96.25H13.75V30.625ZM87.0833 70V61.25H73.3333V52.5H87.0833V43.75H77.9167V35H87.0833V26.25H68.75V87.5H87.0833V78.75H77.9167V70H87.0833ZM64.1667 17.5H91.6667C92.8822 17.5 94.048 17.9609 94.9076 18.7814C95.7671 19.6019 96.25 20.7147 96.25 21.875V91.875C96.25 93.0353 95.7671 94.1481 94.9076 94.9686C94.048 95.7891 92.8822 96.25 91.6667 96.25H64.1667C62.9511 96.25 61.7853 95.7891 60.9258 94.9686C60.0662 94.1481 59.5833 93.0353 59.5833 91.875V21.875C59.5833 20.7147 60.0662 19.6019 60.9258 18.7814C61.7853 17.9609 62.9511 17.5 64.1667 17.5Z" fill="black"/>
</svg>
