<svg width="167" height="148" viewBox="0 0 167 148" fill="none" xmlns="http://www.w3.org/2000/svg">
<g clip-path="url(#clip0_1_167)">
<path d="M127.859 0H39.1406C17.5239 0 0 15.5301 0 34.6875V113.312C0 132.47 17.5239 148 39.1406 148H127.859C149.476 148 167 132.47 167 113.312V34.6875C167 15.5301 149.476 0 127.859 0Z" fill="#F4F2ED"/>
<mask id="mask0_1_167" style="mask-type:luminance" maskUnits="userSpaceOnUse" x="39" y="16" width="88" height="116">
<path d="M39.793 16.1875H126.79V131.812H39.793V16.1875Z" fill="white"/>
</mask>
<g mask="url(#mask0_1_167)">
<path d="M61.5468 131.812C73.55 131.812 83.2914 123.179 83.2914 112.542V93.2706H61.5468C49.5437 93.2706 39.8016 101.904 39.8016 112.542C39.8016 123.179 49.5437 131.812 61.5468 131.812Z" fill="#0ACF83"/>
<path d="M39.8016 74C39.8016 63.3625 49.5437 54.7294 61.5468 54.7294H83.2914V93.2706H61.5468C49.5437 93.2706 39.8016 84.6375 39.8016 74Z" fill="#A259FF"/>
<path d="M39.8016 35.4581C39.8016 24.8206 49.5437 16.1875 61.5468 16.1875H83.2914V54.7294H61.5468C49.5437 54.7294 39.8016 46.0956 39.8016 35.4581Z" fill="#F24E1E"/>
<path d="M83.2913 16.1875H105.036C117.039 16.1875 126.781 24.8206 126.781 35.4581C126.781 46.0956 117.039 54.7294 105.036 54.7294H83.2913V16.1875Z" fill="#FF7262"/>
<path d="M126.781 74C126.781 84.6375 117.039 93.2706 105.036 93.2706C93.0327 93.2706 83.2913 84.6375 83.2913 74C83.2913 63.3625 93.0327 54.7294 105.036 54.7294C117.039 54.7294 126.781 63.3625 126.781 74Z" fill="#1ABCFE"/>
</g>
</g>
<defs>
<clipPath id="clip0_1_167">
<rect width="167" height="148" fill="white"/>
</clipPath>
</defs>
</svg>
