<svg width="133" height="128" viewBox="0 0 133 128" fill="none" xmlns="http://www.w3.org/2000/svg">
<g clip-path="url(#clip0_1_157)">
<path d="M101.828 0H31.1719C13.9561 0 0 13.4315 0 30V98C0 114.569 13.9561 128 31.1719 128H101.828C119.044 128 133 114.569 133 98V30C133 13.4315 119.044 0 101.828 0Z" fill="#470137"/>
<path d="M69.7414 40.1075L54.1554 64.8575L70.7804 91.1075C70.8843 91.3075 70.9363 91.5075 70.8843 91.7075C70.8324 91.9075 70.6246 91.7575 70.3128 91.8075H58.4156C57.5843 91.8075 57.0128 91.7575 56.6492 91.2575C55.5582 89.1575 54.4152 87.1075 53.3242 85.0075C52.2331 82.9575 51.0382 80.8575 49.7914 78.7075C48.5445 76.5575 47.2976 74.4075 46.0507 72.2075H45.9468C44.8558 74.3575 43.6609 76.5075 42.466 78.6575C41.271 80.8075 40.0761 82.9575 38.9332 85.0575C37.7382 87.1575 36.5433 89.3075 35.3484 91.3575C35.1406 91.8575 34.7249 91.9075 34.1535 91.9075H22.7238C22.516 91.9075 22.3601 92.0075 22.3601 91.7575C22.3082 91.5575 22.3601 91.3575 22.464 91.2075L38.6214 65.7075L22.8796 40.0575C22.7238 39.8575 22.6718 39.6575 22.7757 39.5575C22.8796 39.4075 23.0874 39.3575 23.2953 39.3575H35.0886C35.3484 39.3575 35.6082 39.4075 35.816 39.4575C36.0238 39.5575 36.1796 39.7075 36.3355 39.9075C37.3226 42.0575 38.4656 44.2075 39.6605 46.3575C40.9074 48.5075 42.1023 50.6075 43.4011 52.7075C44.648 54.8075 45.791 56.9075 46.882 59.0575H46.9859C48.0769 56.8575 49.2199 54.7075 50.3628 52.6075C51.5058 50.5075 52.7007 48.4075 53.8956 46.3075C55.0906 44.2075 56.2335 42.0575 57.3765 40.0075C57.4285 39.8075 57.5324 39.6075 57.6882 39.5075C57.896 39.4075 58.1039 39.3575 58.3636 39.4075H69.3257C69.5855 39.3575 69.8453 39.5075 69.8972 39.7575C69.9492 39.8075 69.8453 40.0075 69.7414 40.1075ZM93.7437 92.858C89.8992 92.908 86.0546 92.158 82.5738 90.608C79.3007 89.158 76.5992 86.758 74.7289 83.808C72.8066 80.758 71.8714 76.958 71.8714 72.408C71.8195 68.708 72.8066 65.058 74.7289 61.858C76.7031 58.608 79.5605 55.908 82.9894 54.108C86.6261 52.158 90.9902 51.208 96.1335 51.208C96.3933 51.208 96.757 51.208 97.2246 51.258C97.6921 51.308 98.2117 51.308 98.8351 51.358V35.558C98.8351 35.208 98.991 35.008 99.3546 35.008H109.901C110.161 34.958 110.369 35.158 110.421 35.358V83.058C110.421 83.958 110.473 84.958 110.525 86.058C110.628 87.108 110.68 88.108 110.732 88.958C110.732 89.308 110.577 89.608 110.213 89.758C107.511 90.858 104.654 91.658 101.744 92.158C99.0949 92.608 96.4453 92.858 93.7437 92.858ZM98.8351 82.858V60.858C98.3675 60.758 97.8999 60.658 97.4324 60.608C96.8609 60.558 96.2894 60.508 95.7179 60.508C93.6917 60.508 91.6656 60.908 89.8472 61.808C88.0808 62.658 86.5742 63.908 85.4312 65.508C84.2882 67.108 83.7167 69.258 83.7167 71.858C83.6648 73.608 83.9765 75.358 84.5999 77.008C85.1195 78.358 85.8988 79.558 86.9378 80.558C87.9249 81.458 89.1199 82.158 90.4706 82.558C91.8734 83.008 93.3281 83.208 94.7828 83.208C95.562 83.208 96.2894 83.158 96.9648 83.108C97.6402 83.158 98.2117 83.058 98.8351 82.858Z" fill="#FF61F6"/>
</g>
<defs>
<clipPath id="clip0_1_157">
<rect width="133" height="128" fill="white"/>
</clipPath>
</defs>
</svg>
