<svg width="69" height="69" viewBox="0 0 69 69" fill="none" xmlns="http://www.w3.org/2000/svg">
<g clip-path="url(#clip0_1_144)">
<path d="M55.9556 6.70333C58.2084 8.46973 59.7609 11.3229 60.3957 14.3106C60.4726 14.3349 60.5475 14.3649 60.6199 14.4003L67.6752 17.664C68.0696 17.8451 68.4039 18.1352 68.6386 18.5002C68.8734 18.8652 68.9988 19.2897 69 19.7236V62.3898C68.9975 62.7442 68.9129 63.0932 68.7528 63.4095C68.5928 63.7257 68.3616 64.0005 68.0775 64.2124C67.7934 64.4244 67.4641 64.5676 67.1153 64.6308C66.7666 64.6941 66.4079 64.6757 66.0675 64.5771L46.5094 59.0571L23.2565 65.4672C22.8369 65.5824 22.3935 65.5776 21.9765 65.4534L1.6353 59.3986C1.16514 59.2605 0.752065 58.9745 0.457454 58.5829C0.162843 58.1913 0.00241383 57.7151 0 57.2251L0 13.7931C0 12.2751 1.4766 11.1849 2.94975 11.6127L22.6217 17.3431L32.6198 14.283C32.7574 14.2424 32.8982 14.2135 33.0406 14.1967C33.427 11.9335 34.5069 9.76003 36.3182 7.64173C38.4675 5.12323 42.2383 3.64663 45.9126 3.47068C49.7248 3.28783 52.6367 4.10203 55.9521 6.69988L55.9556 6.70333ZM4.59885 16.8394V55.5312L21.4004 60.5302V21.7281L4.59885 16.8394ZM32.9199 18.9577L25.9992 21.0726V59.9851L43.4734 55.1758V43.8081C43.4734 42.5523 44.505 41.5345 45.7746 41.5345C47.0442 41.5345 48.0723 42.5523 48.0723 43.8115V54.7722L64.4012 59.3779V21.1692L60.5372 19.3752C60.4716 19.7547 60.3888 20.1273 60.2853 20.4895C59.5351 23.1348 58.2765 25.6086 56.58 27.7725L48.0344 38.4433C47.8093 38.7239 47.522 38.9481 47.1951 39.0981C46.8682 39.2481 46.5109 39.3197 46.1514 39.3073C45.792 39.2949 45.4404 39.1988 45.1247 39.0267C44.8089 38.8545 44.5376 38.6111 44.3325 38.3157L36.3457 26.7478C35.0279 24.9055 34.1033 23.2633 33.5823 21.7936C33.2553 20.8763 33.0331 19.925 32.9199 18.9577ZM46.1334 8.01778C43.6287 8.13853 41.055 9.14593 39.8302 10.5777C38.3571 12.3027 37.6326 13.9173 37.4877 15.5526C37.3152 17.5225 37.4325 18.9129 37.9224 20.2894C38.2846 21.3072 39.0057 22.5975 40.12 24.1534L46.368 33.1993L52.9575 24.9711C54.2869 23.2721 55.2724 21.3304 55.859 19.2544C56.687 16.3564 55.438 12.0991 53.0989 10.2706C50.7012 8.39038 48.8899 7.88323 46.1369 8.01778H46.1334ZM46.6095 10.4224C50.4183 10.4224 53.5095 13.4757 53.5095 17.2431C53.5045 18.1441 53.3221 19.0352 52.9726 19.8657C52.6231 20.6961 52.1134 21.4496 51.4726 22.083C50.8319 22.7164 50.0726 23.2173 49.2381 23.5572C48.4037 23.8971 47.5105 24.0692 46.6095 24.0637C42.8007 24.0637 39.7095 21.0105 39.7095 17.2431C39.7095 13.4757 42.8007 10.4224 46.6095 10.4224ZM46.6095 14.9695C46.3091 14.9677 46.0113 15.0251 45.7331 15.1384C45.4549 15.2516 45.2017 15.4186 44.988 15.6297C44.7744 15.8408 44.6044 16.092 44.4877 16.3688C44.3711 16.6456 44.3102 16.9427 44.3084 17.2431C44.3084 18.4989 45.3399 19.5166 46.6095 19.5166C46.9099 19.518 47.2076 19.4602 47.4856 19.3465C47.7637 19.2328 48.0166 19.0654 48.2299 18.854C48.4433 18.6426 48.6129 18.3912 48.7291 18.1142C48.8453 17.8372 48.9058 17.54 48.9072 17.2396C48.9026 16.6342 48.6582 16.0552 48.2275 15.6297C47.7968 15.2042 47.215 14.9668 46.6095 14.9695Z" fill="black"/>
</g>
<defs>
<clipPath id="clip0_1_144">
<rect width="69" height="69" fill="white"/>
</clipPath>
</defs>
</svg>
