<svg width="140" height="139" viewBox="0 0 140 139" fill="none" xmlns="http://www.w3.org/2000/svg">
<path d="M13.8644 15.277H126.153V123.723H13.8644V15.277Z" fill="#1C0A00"/>
<path d="M13.8644 15.277H126.153V123.723H13.8644V15.277ZM8.75 128.792H131.25V10.2078H8.75V128.792ZM88.9875 52.4725C88.9875 52.0685 89.1406 51.8644 89.6 51.8644H97.615C98.0219 51.8644 98.2275 52.0164 98.2275 52.4725V92.4567C98.2275 92.8607 98.1269 93.0648 97.615 93.0648H89.7094C89.1975 93.0648 89.0444 92.8129 89.0444 92.4046V52.4725H88.9875ZM88.4275 40.9702C88.4275 39.5993 88.976 38.2846 89.9524 37.3152C90.9287 36.3458 92.253 35.8012 93.6338 35.8012C95.0145 35.8012 96.3388 36.3458 97.3151 37.3152C98.2915 38.2846 98.84 39.5993 98.84 40.9702C98.8905 41.6706 98.787 42.3734 98.5367 43.0301C98.2864 43.6867 97.8953 44.2815 97.3905 44.7732C96.8857 45.2649 96.2793 45.6418 95.6132 45.8776C94.9471 46.1135 94.2374 46.2028 93.5331 46.1393C92.8431 46.1823 92.1519 46.0771 91.5064 45.831C90.861 45.5849 90.2766 45.2037 89.793 44.7131C89.3093 44.2226 88.9378 43.6344 88.7036 42.9885C88.4695 42.3427 88.3783 41.6543 88.4363 40.9702H88.4275ZM65.4587 69.1482C64.0281 63.5013 60.6463 51.2606 59.3863 45.3314H59.2856C58.2137 51.2606 55.51 61.2947 53.3662 69.1482H65.4587ZM51.2706 77.3578L47.2369 92.561C47.1362 92.9649 46.9831 93.0692 46.4712 93.0692H38.9769C38.465 93.0692 38.3644 92.9172 38.465 92.309L52.9594 41.9215C53.3122 40.5478 53.4842 39.1344 53.4713 37.7168C53.4713 37.3606 53.6244 37.2086 53.8781 37.2086H64.5969C64.9556 37.2086 65.1087 37.3085 65.2094 37.7168L81.4406 92.3959C81.5413 92.7999 81.4406 93.0562 81.0337 93.0562H72.5594C72.1525 93.0562 71.8944 92.9562 71.7938 92.6218L67.6069 77.3665H51.275L51.2706 77.3578Z" fill="#FF7F18"/>
</svg>
